G04 #@! TF.FileFunction,Copper,L2,Bot,Signal*
%FSLAX46Y46*%
G04 Gerber Fmt 4.6, Leading zero omitted, Abs format (unit mm)*
G04 Created by KiCad (PCBNEW 4.0.2-stable) date Tue 26 Jul 2016 12:19:11 AM CEST*
%MOMM*%
G01*
G04 APERTURE LIST*
%ADD10C,0.100000*%
%ADD11C,1.998980*%
%ADD12C,2.700000*%
%ADD13C,0.600000*%
%ADD14C,0.400000*%
G04 APERTURE END LIST*
D10*
D11*
X159020000Y-120840000D03*
X159020000Y-131000000D03*
X174244000Y-104140000D03*
X174244000Y-114300000D03*
X157480000Y-104140000D03*
X157480000Y-114300000D03*
X163068000Y-104140000D03*
X163068000Y-114300000D03*
X168656000Y-104140000D03*
X168656000Y-114300000D03*
D12*
X170000000Y-136000000D03*
X173810000Y-136000000D03*
X168656000Y-93345000D03*
X168656000Y-99695000D03*
X163068000Y-93345000D03*
X163068000Y-99695000D03*
X157480000Y-93345000D03*
X157480000Y-99695000D03*
X174244000Y-93345000D03*
X174244000Y-99695000D03*
X156000000Y-136000000D03*
X162350000Y-136000000D03*
D13*
X165632000Y-124182000D03*
X168910000Y-123952000D03*
X167386000Y-122428000D03*
D14*
X162350000Y-127464000D02*
X159468000Y-127464000D01*
X154432000Y-96393000D02*
X157480000Y-93345000D01*
X154432000Y-122428000D02*
X154432000Y-96393000D01*
X159468000Y-127464000D02*
X154432000Y-122428000D01*
X162350000Y-136000000D02*
X162350000Y-127464000D01*
X162350000Y-127464000D02*
X165632000Y-124182000D01*
X157480000Y-93345000D02*
X163068000Y-93345000D01*
X163068000Y-93345000D02*
X168656000Y-93345000D01*
X168656000Y-93345000D02*
X174244000Y-93345000D01*
X167386000Y-122428000D02*
X168910000Y-123952000D01*
M02*
