G04 #@! TF.FileFunction,Copper,L1,Top,Signal*
%FSLAX46Y46*%
G04 Gerber Fmt 4.6, Leading zero omitted, Abs format (unit mm)*
G04 Created by KiCad (PCBNEW 4.0.2-stable) date Tue 26 Jul 2016 12:19:11 AM CEST*
%MOMM*%
G01*
G04 APERTURE LIST*
%ADD10C,0.100000*%
%ADD11R,1.600000X2.000000*%
%ADD12R,2.000000X1.600000*%
%ADD13C,1.998980*%
%ADD14R,0.650000X1.060000*%
%ADD15C,2.700000*%
%ADD16C,0.600000*%
%ADD17C,0.400000*%
G04 APERTURE END LIST*
D10*
D11*
X170704000Y-118332000D03*
X170704000Y-122332000D03*
D12*
X164640000Y-127190000D03*
X168640000Y-127190000D03*
D13*
X159020000Y-120840000D03*
X159020000Y-131000000D03*
X174244000Y-104140000D03*
X174244000Y-114300000D03*
X157480000Y-104140000D03*
X157480000Y-114300000D03*
X163068000Y-104140000D03*
X163068000Y-114300000D03*
X168656000Y-104140000D03*
X168656000Y-114300000D03*
D14*
X164150000Y-122400000D03*
X165100000Y-122400000D03*
X166050000Y-122400000D03*
X166050000Y-120200000D03*
X164150000Y-120200000D03*
D15*
X170000000Y-136000000D03*
X173810000Y-136000000D03*
X168656000Y-93345000D03*
X168656000Y-99695000D03*
X163068000Y-93345000D03*
X163068000Y-99695000D03*
X157480000Y-93345000D03*
X157480000Y-99695000D03*
X174244000Y-93345000D03*
X174244000Y-99695000D03*
X156000000Y-136000000D03*
X162350000Y-136000000D03*
D16*
X165632000Y-124182000D03*
X168910000Y-123952000D03*
X167386000Y-122428000D03*
D17*
X159020000Y-131000000D02*
X165000000Y-131000000D01*
X165000000Y-131000000D02*
X170000000Y-136000000D01*
X156000000Y-136000000D02*
X156000000Y-134020000D01*
X156000000Y-134020000D02*
X159020000Y-131000000D01*
X164150000Y-124650000D02*
X162830000Y-124650000D01*
X159020000Y-128460000D02*
X159020000Y-131000000D01*
X162830000Y-124650000D02*
X159020000Y-128460000D01*
X164150000Y-122400000D02*
X164150000Y-124650000D01*
X164150000Y-124650000D02*
X164150000Y-124650000D01*
X164150000Y-124650000D02*
X164150000Y-126700000D01*
X164150000Y-126700000D02*
X164640000Y-127190000D01*
X166370000Y-124920000D02*
X169180000Y-122110000D01*
X169180000Y-122110000D02*
X170482000Y-122110000D01*
X165100000Y-122400000D02*
X165100000Y-123650000D01*
X165100000Y-123650000D02*
X165632000Y-124182000D01*
X165632000Y-124182000D02*
X166370000Y-124920000D01*
X166370000Y-124920000D02*
X168640000Y-127190000D01*
X167132000Y-120200000D02*
X167132000Y-114300000D01*
X157480000Y-114300000D02*
X163068000Y-114300000D01*
X163068000Y-114300000D02*
X167132000Y-114300000D01*
X167132000Y-114300000D02*
X168656000Y-114300000D01*
X168656000Y-114300000D02*
X174244000Y-114300000D01*
X166050000Y-120200000D02*
X167132000Y-120200000D01*
X167132000Y-120200000D02*
X168836000Y-120200000D01*
X168836000Y-120200000D02*
X170704000Y-118332000D01*
X174244000Y-99695000D02*
X174244000Y-104140000D01*
X157480000Y-99695000D02*
X157480000Y-104140000D01*
X163068000Y-99695000D02*
X163068000Y-104140000D01*
X168656000Y-99695000D02*
X168656000Y-104140000D01*
X164150000Y-120200000D02*
X159660000Y-120200000D01*
X159660000Y-120200000D02*
X159020000Y-120840000D01*
X166050000Y-122400000D02*
X167358000Y-122400000D01*
X173810000Y-128852000D02*
X173810000Y-136000000D01*
X168910000Y-123952000D02*
X173810000Y-128852000D01*
X167358000Y-122400000D02*
X167386000Y-122428000D01*
M02*
